<svg width="562" height="97" viewBox="0 0 562 97" fill="none" xmlns="http://www.w3.org/2000/svg">
<path d="M139.912 55.1875C125.744 61.8346 115.496 73.5544 112.143 78.5835C124.825 81.6446 136.851 75.5223 141.662 72.8985C145.51 70.7994 167.171 58.9046 177.521 53.2197C195.45 43.3074 233.277 22.302 241.149 17.5791C236.339 19.7656 191.515 35.7274 186.267 37.6952C181.019 39.6631 157.623 46.8787 139.912 55.1875Z" fill="url(#paint0_linear_236_939)"/>
<path d="M139.912 55.1875C125.744 61.8346 115.496 73.5544 112.143 78.5835C124.825 81.6446 136.851 75.5223 141.662 72.8985C145.51 70.7994 167.171 58.9046 177.521 53.2197C195.45 43.3074 233.277 22.302 241.149 17.5791C236.339 19.7656 191.515 35.7274 186.267 37.6952C181.019 39.6631 157.623 46.8787 139.912 55.1875Z" fill="url(#paint1_linear_236_939)"/>
<path d="M84.8116 57.9208C80.7884 58.9704 73.0772 59.9806 69.7245 60.1264C72.567 62.1608 78.9517 66.4483 81.7504 67.3229C85.2489 68.4162 91.8085 69.5095 100.555 65.3551C109.301 61.2006 121.108 53.3291 127.886 50.4866C134.665 47.6441 142.755 43.927 150.845 43.927C141.88 42.3964 133.134 44.3643 122.857 46.3322C112.581 48.3001 89.8406 56.6089 84.8116 57.9208Z" fill="url(#paint2_linear_236_939)"/>
<path d="M84.8116 57.9208C80.7884 58.9704 73.0772 59.9806 69.7245 60.1264C72.567 62.1608 78.9517 66.4483 81.7504 67.3229C85.2489 68.4162 91.8085 69.5095 100.555 65.3551C109.301 61.2006 121.108 53.3291 127.886 50.4866C134.665 47.6441 142.755 43.927 150.845 43.927C141.88 42.3964 133.134 44.3643 122.857 46.3322C112.581 48.3001 89.8406 56.6089 84.8116 57.9208Z" fill="url(#paint3_linear_236_939)"/>
<path d="M78.6893 38.5268C63.471 40.9757 47.7133 41.2964 41.7368 41.1507C43.4132 43.3372 48.0778 47.4916 55.9493 50.7714C63.8208 54.0512 79.7826 51.4274 109.738 42.6812C139.694 33.9351 156.53 38.5268 162.871 40.7134C139.912 25.4076 97.7122 35.4657 78.6893 38.5268Z" fill="url(#paint4_linear_236_939)"/>
<path d="M78.6893 38.5268C63.471 40.9757 47.7133 41.2964 41.7368 41.1507C43.4132 43.3372 48.0778 47.4916 55.9493 50.7714C63.8208 54.0512 79.7826 51.4274 109.738 42.6812C139.694 33.9351 156.53 38.5268 162.871 40.7134C139.912 25.4076 97.7122 35.4657 78.6893 38.5268Z" fill="url(#paint5_linear_236_939)"/>
<path d="M91.1525 19.7656H11.9999C29.4922 34.6341 34.7399 33.3222 44.3606 33.3222C53.9814 33.3222 69.9431 32.0102 105.146 27.8558C140.35 23.7014 159.154 31.1356 170.524 37.4766C154.343 20.2029 125.262 19.7656 120.452 19.7656H91.1525Z" fill="url(#paint6_linear_236_939)"/>
<path d="M91.1525 19.7656H11.9999C29.4922 34.6341 34.7399 33.3222 44.3606 33.3222C53.9814 33.3222 69.9431 32.0102 105.146 27.8558C140.35 23.7014 159.154 31.1356 170.524 37.4766C154.343 20.2029 125.262 19.7656 120.452 19.7656H91.1525Z" fill="url(#paint7_linear_236_939)"/>
<path d="M267.209 70L248.849 28H257.309L273.689 65.98H268.829L285.389 28H293.189L274.889 70H267.209ZM299.421 70V28H307.221V70H299.421ZM340.061 70.6C336.781 70.6 333.761 70.06 331.001 68.98C328.241 67.9 325.841 66.4 323.801 64.48C321.761 62.52 320.181 60.24 319.061 57.64C317.941 55 317.381 52.12 317.381 49C317.381 45.88 317.941 43.02 319.061 40.42C320.181 37.78 321.761 35.5 323.801 33.58C325.841 31.62 328.241 30.1 331.001 29.02C333.761 27.94 336.761 27.4 340.001 27.4C343.281 27.4 346.281 27.94 349.001 29.02C351.761 30.1 354.161 31.62 356.201 33.58C358.241 35.5 359.821 37.78 360.941 40.42C362.061 43.02 362.621 45.88 362.621 49C362.621 52.12 362.061 55 360.941 57.64C359.821 60.28 358.241 62.56 356.201 64.48C354.161 66.4 351.761 67.9 349.001 68.98C346.281 70.06 343.301 70.6 340.061 70.6ZM340.001 63.76C342.121 63.76 344.081 63.4 345.881 62.68C347.681 61.96 349.241 60.94 350.561 59.62C351.881 58.26 352.901 56.7 353.621 54.94C354.381 53.14 354.761 51.16 354.761 49C354.761 46.84 354.381 44.88 353.621 43.12C352.901 41.32 351.881 39.76 350.561 38.44C349.241 37.08 347.681 36.04 345.881 35.32C344.081 34.6 342.121 34.24 340.001 34.24C337.881 34.24 335.921 34.6 334.121 35.32C332.361 36.04 330.801 37.08 329.441 38.44C328.121 39.76 327.081 41.32 326.321 43.12C325.601 44.88 325.241 46.84 325.241 49C325.241 51.12 325.601 53.08 326.321 54.88C327.081 56.68 328.121 58.26 329.441 59.62C330.761 60.94 332.321 61.96 334.121 62.68C335.921 63.4 337.881 63.76 340.001 63.76ZM372.689 70V28H379.109L397.469 58.66H394.109L412.169 28H418.589L418.649 70H411.269L411.209 39.58H412.769L397.409 65.2H393.929L378.329 39.58H380.129V70H372.689Z" fill="black"/>
<path d="M267.209 70L248.849 28H257.309L273.689 65.98H268.829L285.389 28H293.189L274.889 70H267.209ZM299.421 70V28H307.221V70H299.421ZM340.061 70.6C336.781 70.6 333.761 70.06 331.001 68.98C328.241 67.9 325.841 66.4 323.801 64.48C321.761 62.52 320.181 60.24 319.061 57.64C317.941 55 317.381 52.12 317.381 49C317.381 45.88 317.941 43.02 319.061 40.42C320.181 37.78 321.761 35.5 323.801 33.58C325.841 31.62 328.241 30.1 331.001 29.02C333.761 27.94 336.761 27.4 340.001 27.4C343.281 27.4 346.281 27.94 349.001 29.02C351.761 30.1 354.161 31.62 356.201 33.58C358.241 35.5 359.821 37.78 360.941 40.42C362.061 43.02 362.621 45.88 362.621 49C362.621 52.12 362.061 55 360.941 57.64C359.821 60.28 358.241 62.56 356.201 64.48C354.161 66.4 351.761 67.9 349.001 68.98C346.281 70.06 343.301 70.6 340.061 70.6ZM340.001 63.76C342.121 63.76 344.081 63.4 345.881 62.68C347.681 61.96 349.241 60.94 350.561 59.62C351.881 58.26 352.901 56.7 353.621 54.94C354.381 53.14 354.761 51.16 354.761 49C354.761 46.84 354.381 44.88 353.621 43.12C352.901 41.32 351.881 39.76 350.561 38.44C349.241 37.08 347.681 36.04 345.881 35.32C344.081 34.6 342.121 34.24 340.001 34.24C337.881 34.24 335.921 34.6 334.121 35.32C332.361 36.04 330.801 37.08 329.441 38.44C328.121 39.76 327.081 41.32 326.321 43.12C325.601 44.88 325.241 46.84 325.241 49C325.241 51.12 325.601 53.08 326.321 54.88C327.081 56.68 328.121 58.26 329.441 59.62C330.761 60.94 332.321 61.96 334.121 62.68C335.921 63.4 337.881 63.76 340.001 63.76ZM372.689 70V28H379.109L397.469 58.66H394.109L412.169 28H418.589L418.649 70H411.269L411.209 39.58H412.769L397.409 65.2H393.929L378.329 39.58H380.129V70H372.689Z" fill="url(#paint8_linear_236_939)"/>
<path d="M267.209 70L248.849 28H257.309L273.689 65.98H268.829L285.389 28H293.189L274.889 70H267.209ZM299.421 70V28H307.221V70H299.421ZM340.061 70.6C336.781 70.6 333.761 70.06 331.001 68.98C328.241 67.9 325.841 66.4 323.801 64.48C321.761 62.52 320.181 60.24 319.061 57.64C317.941 55 317.381 52.12 317.381 49C317.381 45.88 317.941 43.02 319.061 40.42C320.181 37.78 321.761 35.5 323.801 33.58C325.841 31.62 328.241 30.1 331.001 29.02C333.761 27.94 336.761 27.4 340.001 27.4C343.281 27.4 346.281 27.94 349.001 29.02C351.761 30.1 354.161 31.62 356.201 33.58C358.241 35.5 359.821 37.78 360.941 40.42C362.061 43.02 362.621 45.88 362.621 49C362.621 52.12 362.061 55 360.941 57.64C359.821 60.28 358.241 62.56 356.201 64.48C354.161 66.4 351.761 67.9 349.001 68.98C346.281 70.06 343.301 70.6 340.061 70.6ZM340.001 63.76C342.121 63.76 344.081 63.4 345.881 62.68C347.681 61.96 349.241 60.94 350.561 59.62C351.881 58.26 352.901 56.7 353.621 54.94C354.381 53.14 354.761 51.16 354.761 49C354.761 46.84 354.381 44.88 353.621 43.12C352.901 41.32 351.881 39.76 350.561 38.44C349.241 37.08 347.681 36.04 345.881 35.32C344.081 34.6 342.121 34.24 340.001 34.24C337.881 34.24 335.921 34.6 334.121 35.32C332.361 36.04 330.801 37.08 329.441 38.44C328.121 39.76 327.081 41.32 326.321 43.12C325.601 44.88 325.241 46.84 325.241 49C325.241 51.12 325.601 53.08 326.321 54.88C327.081 56.68 328.121 58.26 329.441 59.62C330.761 60.94 332.321 61.96 334.121 62.68C335.921 63.4 337.881 63.76 340.001 63.76ZM372.689 70V28H379.109L397.469 58.66H394.109L412.169 28H418.589L418.649 70H411.269L411.209 39.58H412.769L397.409 65.2H393.929L378.329 39.58H380.129V70H372.689Z" fill="url(#paint9_linear_236_939)"/>
<path d="M436.849 70L455.749 28H463.429L482.389 70H474.229L457.969 32.14H461.089L444.889 70H436.849ZM445.549 60.28L447.649 54.16H470.329L472.429 60.28H445.549ZM489.53 70V28H497.33V70H489.53ZM510.491 70V28H527.771C531.491 28 534.671 28.6 537.311 29.8C539.991 31 542.051 32.72 543.491 34.96C544.931 37.2 545.651 39.86 545.651 42.94C545.651 46.02 544.931 48.68 543.491 50.92C542.051 53.12 539.991 54.82 537.311 56.02C534.671 57.18 531.491 57.76 527.771 57.76H514.811L518.291 54.22V70H510.491ZM537.971 70L527.351 54.76H535.691L546.371 70H537.971ZM518.291 55.06L514.811 51.34H527.411C530.851 51.34 533.431 50.6 535.151 49.12C536.911 47.64 537.791 45.58 537.791 42.94C537.791 40.26 536.911 38.2 535.151 36.76C533.431 35.32 530.851 34.6 527.411 34.6H514.811L518.291 30.76V55.06Z" fill="black"/>
<path d="M436.849 70L455.749 28H463.429L482.389 70H474.229L457.969 32.14H461.089L444.889 70H436.849ZM445.549 60.28L447.649 54.16H470.329L472.429 60.28H445.549ZM489.53 70V28H497.33V70H489.53ZM510.491 70V28H527.771C531.491 28 534.671 28.6 537.311 29.8C539.991 31 542.051 32.72 543.491 34.96C544.931 37.2 545.651 39.86 545.651 42.94C545.651 46.02 544.931 48.68 543.491 50.92C542.051 53.12 539.991 54.82 537.311 56.02C534.671 57.18 531.491 57.76 527.771 57.76H514.811L518.291 54.22V70H510.491ZM537.971 70L527.351 54.76H535.691L546.371 70H537.971ZM518.291 55.06L514.811 51.34H527.411C530.851 51.34 533.431 50.6 535.151 49.12C536.911 47.64 537.791 45.58 537.791 42.94C537.791 40.26 536.911 38.2 535.151 36.76C533.431 35.32 530.851 34.6 527.411 34.6H514.811L518.291 30.76V55.06Z" fill="url(#paint10_linear_236_939)"/>
<path d="M436.849 70L455.749 28H463.429L482.389 70H474.229L457.969 32.14H461.089L444.889 70H436.849ZM445.549 60.28L447.649 54.16H470.329L472.429 60.28H445.549ZM489.53 70V28H497.33V70H489.53ZM510.491 70V28H527.771C531.491 28 534.671 28.6 537.311 29.8C539.991 31 542.051 32.72 543.491 34.96C544.931 37.2 545.651 39.86 545.651 42.94C545.651 46.02 544.931 48.68 543.491 50.92C542.051 53.12 539.991 54.82 537.311 56.02C534.671 57.18 531.491 57.76 527.771 57.76H514.811L518.291 54.22V70H510.491ZM537.971 70L527.351 54.76H535.691L546.371 70H537.971ZM518.291 55.06L514.811 51.34H527.411C530.851 51.34 533.431 50.6 535.151 49.12C536.911 47.64 537.791 45.58 537.791 42.94C537.791 40.26 536.911 38.2 535.151 36.76C533.431 35.32 530.851 34.6 527.411 34.6H514.811L518.291 30.76V55.06Z" fill="url(#paint11_linear_236_939)"/>
<defs>
<linearGradient id="paint0_linear_236_939" x1="124.33" y1="22.3895" x2="143.015" y2="130.693" gradientUnits="userSpaceOnUse">
<stop stop-color="#8C421D"/>
<stop offset="0.494638" stop-color="#FBE67B"/>
<stop offset="0.551196" stop-color="#FCFBE7"/>
<stop offset="0.766944" stop-color="#F7D14E"/>
<stop offset="1" stop-color="#D4A041"/>
</linearGradient>
<linearGradient id="paint1_linear_236_939" x1="106.781" y1="-6.72502" x2="133.47" y2="101.253" gradientUnits="userSpaceOnUse">
<stop stop-color="#B6947E"/>
<stop offset="0.2" stop-color="#8F6959"/>
<stop offset="0.475" stop-color="#F8DAC8"/>
<stop offset="0.67" stop-color="#AC836E"/>
<stop offset="1" stop-color="#F8DCCB"/>
<stop offset="1" stop-color="#B6947E"/>
</linearGradient>
<linearGradient id="paint2_linear_236_939" x1="77.3876" y1="45.3204" x2="82.3042" y2="89.755" gradientUnits="userSpaceOnUse">
<stop stop-color="#8C421D"/>
<stop offset="0.494638" stop-color="#FBE67B"/>
<stop offset="0.551196" stop-color="#FCFBE7"/>
<stop offset="0.766944" stop-color="#F7D14E"/>
<stop offset="1" stop-color="#D4A041"/>
</linearGradient>
<linearGradient id="paint3_linear_236_939" x1="66.3527" y1="33.5786" x2="73.4983" y2="78.6535" gradientUnits="userSpaceOnUse">
<stop stop-color="#B6947E"/>
<stop offset="0.2" stop-color="#8F6959"/>
<stop offset="0.475" stop-color="#F8DAC8"/>
<stop offset="0.67" stop-color="#AC836E"/>
<stop offset="1" stop-color="#F8DCCB"/>
<stop offset="1" stop-color="#B6947E"/>
</linearGradient>
<linearGradient id="paint4_linear_236_939" x1="53.1798" y1="33.979" x2="55.2491" y2="69.3596" gradientUnits="userSpaceOnUse">
<stop stop-color="#8C421D"/>
<stop offset="0.494638" stop-color="#FBE67B"/>
<stop offset="0.551196" stop-color="#FCFBE7"/>
<stop offset="0.766944" stop-color="#F7D14E"/>
<stop offset="1" stop-color="#D4A041"/>
</linearGradient>
<linearGradient id="paint5_linear_236_939" x1="36.7019" y1="24.7112" x2="39.7367" y2="60.9287" gradientUnits="userSpaceOnUse">
<stop stop-color="#B6947E"/>
<stop offset="0.2" stop-color="#8F6959"/>
<stop offset="0.475" stop-color="#F8DAC8"/>
<stop offset="0.67" stop-color="#AC836E"/>
<stop offset="1" stop-color="#F8DCCB"/>
<stop offset="1" stop-color="#B6947E"/>
</linearGradient>
<linearGradient id="paint6_linear_236_939" x1="26.9749" y1="21.1433" x2="28.2571" y2="53.0322" gradientUnits="userSpaceOnUse">
<stop stop-color="#8C421D"/>
<stop offset="0.494638" stop-color="#FBE67B"/>
<stop offset="0.551196" stop-color="#FCFBE7"/>
<stop offset="0.766944" stop-color="#F7D14E"/>
<stop offset="1" stop-color="#D4A041"/>
</linearGradient>
<linearGradient id="paint7_linear_236_939" x1="5.41082" y1="12.8051" x2="7.29484" y2="45.5099" gradientUnits="userSpaceOnUse">
<stop stop-color="#B6947E"/>
<stop offset="0.2" stop-color="#8F6959"/>
<stop offset="0.475" stop-color="#F8DAC8"/>
<stop offset="0.67" stop-color="#AC836E"/>
<stop offset="1" stop-color="#F8DCCB"/>
<stop offset="1" stop-color="#B6947E"/>
</linearGradient>
<linearGradient id="paint8_linear_236_939" x1="238.8" y1="3.49389" x2="269.234" y2="210.601" gradientUnits="userSpaceOnUse">
<stop stop-color="#8C421D"/>
<stop offset="0.513687" stop-color="#FBE67B"/>
<stop offset="0.551196" stop-color="#FCFBE7"/>
<stop offset="0.766944" stop-color="#F7D14E"/>
<stop offset="0.811356" stop-color="#EFC64B"/>
<stop offset="1" stop-color="#D4A041"/>
</linearGradient>
<linearGradient id="paint9_linear_236_939" x1="230.532" y1="-44.246" x2="246.064" y2="101.458" gradientUnits="userSpaceOnUse">
<stop stop-color="#B6947E"/>
<stop offset="0.341924" stop-color="#8F6959"/>
<stop offset="0.475" stop-color="#F8DAC8"/>
<stop offset="0.67" stop-color="#AC836E"/>
<stop offset="1" stop-color="#F8DCCB"/>
<stop offset="1" stop-color="#B6947E"/>
</linearGradient>
<linearGradient id="paint10_linear_236_939" x1="430.637" y1="3.49389" x2="477.494" y2="204.13" gradientUnits="userSpaceOnUse">
<stop stop-color="#8C421D"/>
<stop offset="0.513687" stop-color="#FBE67B"/>
<stop offset="0.551196" stop-color="#FCFBE7"/>
<stop offset="0.766944" stop-color="#F7D14E"/>
<stop offset="0.811356" stop-color="#EFC64B"/>
<stop offset="1" stop-color="#D4A041"/>
</linearGradient>
<linearGradient id="paint11_linear_236_939" x1="425.435" y1="-44.246" x2="449.704" y2="99.002" gradientUnits="userSpaceOnUse">
<stop stop-color="#B6947E"/>
<stop offset="0.341924" stop-color="#8F6959"/>
<stop offset="0.475" stop-color="#F8DAC8"/>
<stop offset="0.67" stop-color="#AC836E"/>
<stop offset="1" stop-color="#F8DCCB"/>
<stop offset="1" stop-color="#B6947E"/>
</linearGradient>
</defs>
</svg>
