<svg width="598" height="97" viewBox="0 0 598 97" fill="none" xmlns="http://www.w3.org/2000/svg">
<path d="M139.912 55.1875C125.744 61.8346 115.496 73.5544 112.143 78.5835C124.825 81.6446 136.851 75.5223 141.662 72.8985C145.51 70.7994 167.171 58.9046 177.521 53.2197C195.45 43.3074 233.277 22.302 241.149 17.5791C236.339 19.7656 191.515 35.7274 186.267 37.6952C181.019 39.6631 157.623 46.8787 139.912 55.1875Z" fill="url(#paint0_linear_236_939)"/>
<path d="M139.912 55.1875C125.744 61.8346 115.496 73.5544 112.143 78.5835C124.825 81.6446 136.851 75.5223 141.662 72.8985C145.51 70.7994 167.171 58.9046 177.521 53.2197C195.45 43.3074 233.277 22.302 241.149 17.5791C236.339 19.7656 191.515 35.7274 186.267 37.6952C181.019 39.6631 157.623 46.8787 139.912 55.1875Z" fill="url(#paint1_linear_236_939)"/>
<path d="M84.8117 57.9206C80.7884 58.9701 73.0772 59.9804 69.7245 60.1261C72.567 62.1606 78.9517 66.4481 81.7505 67.3227C85.249 68.416 91.8086 69.5092 100.555 65.3548C109.301 61.2004 121.108 53.3289 127.886 50.4864C134.665 47.6439 142.755 43.9268 150.845 43.9268C141.88 42.3962 133.134 44.3641 122.857 46.332C112.581 48.2998 89.8407 56.6087 84.8117 57.9206Z" fill="url(#paint2_linear_236_939)"/>
<path d="M84.8117 57.9206C80.7884 58.9701 73.0772 59.9804 69.7245 60.1261C72.567 62.1606 78.9517 66.4481 81.7505 67.3227C85.249 68.416 91.8086 69.5092 100.555 65.3548C109.301 61.2004 121.108 53.3289 127.886 50.4864C134.665 47.6439 142.755 43.9268 150.845 43.9268C141.88 42.3962 133.134 44.3641 122.857 46.332C112.581 48.2998 89.8407 56.6087 84.8117 57.9206Z" fill="url(#paint3_linear_236_939)"/>
<path d="M78.6893 38.5266C63.471 40.9755 47.7133 41.2962 41.7368 41.1504C43.4132 43.337 48.0778 47.4914 55.9493 50.7712C63.8208 54.051 79.7826 51.4272 109.738 42.681C139.694 33.9349 156.53 38.5266 162.871 40.7131C139.912 25.4074 97.7122 35.4654 78.6893 38.5266Z" fill="url(#paint4_linear_236_939)"/>
<path d="M78.6893 38.5266C63.471 40.9755 47.7133 41.2962 41.7368 41.1504C43.4132 43.337 48.0778 47.4914 55.9493 50.7712C63.8208 54.051 79.7826 51.4272 109.738 42.681C139.694 33.9349 156.53 38.5266 162.871 40.7131C139.912 25.4074 97.7122 35.4654 78.6893 38.5266Z" fill="url(#paint5_linear_236_939)"/>
<path d="M91.1526 19.7656H11.9999C29.4922 34.6341 34.7399 33.3222 44.3607 33.3222C53.9814 33.3222 69.9432 32.0102 105.146 27.8558C140.35 23.7014 159.154 31.1356 170.524 37.4766C154.343 20.2029 125.263 19.7656 120.452 19.7656H91.1526Z" fill="url(#paint6_linear_236_939)"/>
<path d="M91.1526 19.7656H11.9999C29.4922 34.6341 34.7399 33.3222 44.3607 33.3222C53.9814 33.3222 69.9432 32.0102 105.146 27.8558C140.35 23.7014 159.154 31.1356 170.524 37.4766C154.343 20.2029 125.263 19.7656 120.452 19.7656H91.1526Z" fill="url(#paint7_linear_236_939)"/>
<path d="M283.209 70L264.849 28H273.309L289.689 65.98H284.829L301.389 28H309.189L290.889 70H283.209ZM317.28 70V28H325.08V70H317.28ZM359.72 70.6C356.44 70.6 353.42 70.06 350.66 68.98C347.9 67.9 345.5 66.4 343.46 64.48C341.42 62.52 339.84 60.24 338.72 57.64C337.6 55 337.04 52.12 337.04 49C337.04 45.88 337.6 43.02 338.72 40.42C339.84 37.78 341.42 35.5 343.46 33.58C345.5 31.62 347.9 30.1 350.66 29.02C353.42 27.94 356.42 27.4 359.66 27.4C362.94 27.4 365.94 27.94 368.66 29.02C371.42 30.1 373.82 31.62 375.86 33.58C377.9 35.5 379.48 37.78 380.6 40.42C381.72 43.02 382.28 45.88 382.28 49C382.28 52.12 381.72 55 380.6 57.64C379.48 60.28 377.9 62.56 375.86 64.48C373.82 66.4 371.42 67.9 368.66 68.98C365.94 70.06 362.96 70.6 359.72 70.6ZM359.66 63.76C361.78 63.76 363.74 63.4 365.54 62.68C367.34 61.96 368.9 60.94 370.22 59.62C371.54 58.26 372.56 56.7 373.28 54.94C374.04 53.14 374.42 51.16 374.42 49C374.42 46.84 374.04 44.88 373.28 43.12C372.56 41.32 371.54 39.76 370.22 38.44C368.9 37.08 367.34 36.04 365.54 35.32C363.74 34.6 361.78 34.24 359.66 34.24C357.54 34.24 355.58 34.6 353.78 35.32C352.02 36.04 350.46 37.08 349.1 38.44C347.78 39.76 346.74 41.32 345.98 43.12C345.26 44.88 344.9 46.84 344.9 49C344.9 51.12 345.26 53.08 345.98 54.88C346.74 56.68 347.78 58.26 349.1 59.62C350.42 60.94 351.98 61.96 353.78 62.68C355.58 63.4 357.54 63.76 359.66 63.76ZM394.148 70V28H400.568L418.928 58.66H415.568L433.628 28H440.048L440.108 70H432.728L432.668 39.58H434.228L418.868 65.2H415.388L399.788 39.58H401.588V70H394.148ZM469.294 70L488.194 28H495.874L514.834 70H506.674L490.414 32.14H493.534L477.334 70H469.294ZM477.994 60.28L480.094 54.16H502.774L504.874 60.28H477.994ZM523.776 70V28H531.576V70H523.776ZM546.536 70V28H563.816C567.536 28 570.716 28.6 573.356 29.8C576.036 31 578.096 32.72 579.536 34.96C580.976 37.2 581.696 39.86 581.696 42.94C581.696 46.02 580.976 48.68 579.536 50.92C578.096 53.12 576.036 54.82 573.356 56.02C570.716 57.18 567.536 57.76 563.816 57.76H550.856L554.336 54.22V70H546.536ZM574.016 70L563.396 54.76H571.736L582.416 70H574.016ZM554.336 55.06L550.856 51.34H563.456C566.896 51.34 569.476 50.6 571.196 49.12C572.956 47.64 573.836 45.58 573.836 42.94C573.836 40.26 572.956 38.2 571.196 36.76C569.476 35.32 566.896 34.6 563.456 34.6H550.856L554.336 30.76V55.06Z" fill="black"/>
<path d="M283.209 70L264.849 28H273.309L289.689 65.98H284.829L301.389 28H309.189L290.889 70H283.209ZM317.28 70V28H325.08V70H317.28ZM359.72 70.6C356.44 70.6 353.42 70.06 350.66 68.98C347.9 67.9 345.5 66.4 343.46 64.48C341.42 62.52 339.84 60.24 338.72 57.64C337.6 55 337.04 52.12 337.04 49C337.04 45.88 337.6 43.02 338.72 40.42C339.84 37.78 341.42 35.5 343.46 33.58C345.5 31.62 347.9 30.1 350.66 29.02C353.42 27.94 356.42 27.4 359.66 27.4C362.94 27.4 365.94 27.94 368.66 29.02C371.42 30.1 373.82 31.62 375.86 33.58C377.9 35.5 379.48 37.78 380.6 40.42C381.72 43.02 382.28 45.88 382.28 49C382.28 52.12 381.72 55 380.6 57.64C379.48 60.28 377.9 62.56 375.86 64.48C373.82 66.4 371.42 67.9 368.66 68.98C365.94 70.06 362.96 70.6 359.72 70.6ZM359.66 63.76C361.78 63.76 363.74 63.4 365.54 62.68C367.34 61.96 368.9 60.94 370.22 59.62C371.54 58.26 372.56 56.7 373.28 54.94C374.04 53.14 374.42 51.16 374.42 49C374.42 46.84 374.04 44.88 373.28 43.12C372.56 41.32 371.54 39.76 370.22 38.44C368.9 37.08 367.34 36.04 365.54 35.32C363.74 34.6 361.78 34.24 359.66 34.24C357.54 34.24 355.58 34.6 353.78 35.32C352.02 36.04 350.46 37.08 349.1 38.44C347.78 39.76 346.74 41.32 345.98 43.12C345.26 44.88 344.9 46.84 344.9 49C344.9 51.12 345.26 53.08 345.98 54.88C346.74 56.68 347.78 58.26 349.1 59.62C350.42 60.94 351.98 61.96 353.78 62.68C355.58 63.4 357.54 63.76 359.66 63.76ZM394.148 70V28H400.568L418.928 58.66H415.568L433.628 28H440.048L440.108 70H432.728L432.668 39.58H434.228L418.868 65.2H415.388L399.788 39.58H401.588V70H394.148ZM469.294 70L488.194 28H495.874L514.834 70H506.674L490.414 32.14H493.534L477.334 70H469.294ZM477.994 60.28L480.094 54.16H502.774L504.874 60.28H477.994ZM523.776 70V28H531.576V70H523.776ZM546.536 70V28H563.816C567.536 28 570.716 28.6 573.356 29.8C576.036 31 578.096 32.72 579.536 34.96C580.976 37.2 581.696 39.86 581.696 42.94C581.696 46.02 580.976 48.68 579.536 50.92C578.096 53.12 576.036 54.82 573.356 56.02C570.716 57.18 567.536 57.76 563.816 57.76H550.856L554.336 54.22V70H546.536ZM574.016 70L563.396 54.76H571.736L582.416 70H574.016ZM554.336 55.06L550.856 51.34H563.456C566.896 51.34 569.476 50.6 571.196 49.12C572.956 47.64 573.836 45.58 573.836 42.94C573.836 40.26 572.956 38.2 571.196 36.76C569.476 35.32 566.896 34.6 563.456 34.6H550.856L554.336 30.76V55.06Z" fill="url(#paint8_linear_236_939)"/>
<path d="M283.209 70L264.849 28H273.309L289.689 65.98H284.829L301.389 28H309.189L290.889 70H283.209ZM317.28 70V28H325.08V70H317.28ZM359.72 70.6C356.44 70.6 353.42 70.06 350.66 68.98C347.9 67.9 345.5 66.4 343.46 64.48C341.42 62.52 339.84 60.24 338.72 57.64C337.6 55 337.04 52.12 337.04 49C337.04 45.88 337.6 43.02 338.72 40.42C339.84 37.78 341.42 35.5 343.46 33.58C345.5 31.62 347.9 30.1 350.66 29.02C353.42 27.94 356.42 27.4 359.66 27.4C362.94 27.4 365.94 27.94 368.66 29.02C371.42 30.1 373.82 31.62 375.86 33.58C377.9 35.5 379.48 37.78 380.6 40.42C381.72 43.02 382.28 45.88 382.28 49C382.28 52.12 381.72 55 380.6 57.64C379.48 60.28 377.9 62.56 375.86 64.48C373.82 66.4 371.42 67.9 368.66 68.98C365.94 70.06 362.96 70.6 359.72 70.6ZM359.66 63.76C361.78 63.76 363.74 63.4 365.54 62.68C367.34 61.96 368.9 60.94 370.22 59.62C371.54 58.26 372.56 56.7 373.28 54.94C374.04 53.14 374.42 51.16 374.42 49C374.42 46.84 374.04 44.88 373.28 43.12C372.56 41.32 371.54 39.76 370.22 38.44C368.9 37.08 367.34 36.04 365.54 35.32C363.74 34.6 361.78 34.24 359.66 34.24C357.54 34.24 355.58 34.6 353.78 35.32C352.02 36.04 350.46 37.08 349.1 38.44C347.78 39.76 346.74 41.32 345.98 43.12C345.26 44.88 344.9 46.84 344.9 49C344.9 51.12 345.26 53.08 345.98 54.88C346.74 56.68 347.78 58.26 349.1 59.62C350.42 60.94 351.98 61.96 353.78 62.68C355.58 63.4 357.54 63.76 359.66 63.76ZM394.148 70V28H400.568L418.928 58.66H415.568L433.628 28H440.048L440.108 70H432.728L432.668 39.58H434.228L418.868 65.2H415.388L399.788 39.58H401.588V70H394.148ZM469.294 70L488.194 28H495.874L514.834 70H506.674L490.414 32.14H493.534L477.334 70H469.294ZM477.994 60.28L480.094 54.16H502.774L504.874 60.28H477.994ZM523.776 70V28H531.576V70H523.776ZM546.536 70V28H563.816C567.536 28 570.716 28.6 573.356 29.8C576.036 31 578.096 32.72 579.536 34.96C580.976 37.2 581.696 39.86 581.696 42.94C581.696 46.02 580.976 48.68 579.536 50.92C578.096 53.12 576.036 54.82 573.356 56.02C570.716 57.18 567.536 57.76 563.816 57.76H550.856L554.336 54.22V70H546.536ZM574.016 70L563.396 54.76H571.736L582.416 70H574.016ZM554.336 55.06L550.856 51.34H563.456C566.896 51.34 569.476 50.6 571.196 49.12C572.956 47.64 573.836 45.58 573.836 42.94C573.836 40.26 572.956 38.2 571.196 36.76C569.476 35.32 566.896 34.6 563.456 34.6H550.856L554.336 30.76V55.06Z" fill="url(#paint9_linear_236_939)"/>
<defs>
<linearGradient id="paint0_linear_236_939" x1="124.33" y1="22.3895" x2="143.015" y2="130.693" gradientUnits="userSpaceOnUse">
<stop stop-color="#8C421D"/>
<stop offset="0.494638" stop-color="#FBE67B"/>
<stop offset="0.551196" stop-color="#FCFBE7"/>
<stop offset="0.766944" stop-color="#F7D14E"/>
<stop offset="1" stop-color="#D4A041"/>
</linearGradient>
<linearGradient id="paint1_linear_236_939" x1="106.781" y1="-6.72502" x2="133.47" y2="101.253" gradientUnits="userSpaceOnUse">
<stop stop-color="#B6947E"/>
<stop offset="0.2" stop-color="#8F6959"/>
<stop offset="0.475" stop-color="#F8DAC8"/>
<stop offset="0.67" stop-color="#AC836E"/>
<stop offset="1" stop-color="#F8DCCB"/>
<stop offset="1" stop-color="#B6947E"/>
</linearGradient>
<linearGradient id="paint2_linear_236_939" x1="77.3877" y1="45.3201" x2="82.3043" y2="89.7548" gradientUnits="userSpaceOnUse">
<stop stop-color="#8C421D"/>
<stop offset="0.494638" stop-color="#FBE67B"/>
<stop offset="0.551196" stop-color="#FCFBE7"/>
<stop offset="0.766944" stop-color="#F7D14E"/>
<stop offset="1" stop-color="#D4A041"/>
</linearGradient>
<linearGradient id="paint3_linear_236_939" x1="66.3528" y1="33.5783" x2="73.4984" y2="78.6533" gradientUnits="userSpaceOnUse">
<stop stop-color="#B6947E"/>
<stop offset="0.2" stop-color="#8F6959"/>
<stop offset="0.475" stop-color="#F8DAC8"/>
<stop offset="0.67" stop-color="#AC836E"/>
<stop offset="1" stop-color="#F8DCCB"/>
<stop offset="1" stop-color="#B6947E"/>
</linearGradient>
<linearGradient id="paint4_linear_236_939" x1="53.1798" y1="33.9788" x2="55.2491" y2="69.3594" gradientUnits="userSpaceOnUse">
<stop stop-color="#8C421D"/>
<stop offset="0.494638" stop-color="#FBE67B"/>
<stop offset="0.551196" stop-color="#FCFBE7"/>
<stop offset="0.766944" stop-color="#F7D14E"/>
<stop offset="1" stop-color="#D4A041"/>
</linearGradient>
<linearGradient id="paint5_linear_236_939" x1="36.7019" y1="24.711" x2="39.7367" y2="60.9284" gradientUnits="userSpaceOnUse">
<stop stop-color="#B6947E"/>
<stop offset="0.2" stop-color="#8F6959"/>
<stop offset="0.475" stop-color="#F8DAC8"/>
<stop offset="0.67" stop-color="#AC836E"/>
<stop offset="1" stop-color="#F8DCCB"/>
<stop offset="1" stop-color="#B6947E"/>
</linearGradient>
<linearGradient id="paint6_linear_236_939" x1="26.975" y1="21.1433" x2="28.2572" y2="53.0322" gradientUnits="userSpaceOnUse">
<stop stop-color="#8C421D"/>
<stop offset="0.494638" stop-color="#FBE67B"/>
<stop offset="0.551196" stop-color="#FCFBE7"/>
<stop offset="0.766944" stop-color="#F7D14E"/>
<stop offset="1" stop-color="#D4A041"/>
</linearGradient>
<linearGradient id="paint7_linear_236_939" x1="5.41088" y1="12.8051" x2="7.2949" y2="45.5099" gradientUnits="userSpaceOnUse">
<stop stop-color="#B6947E"/>
<stop offset="0.2" stop-color="#8F6959"/>
<stop offset="0.475" stop-color="#F8DAC8"/>
<stop offset="0.67" stop-color="#AC836E"/>
<stop offset="1" stop-color="#F8DCCB"/>
<stop offset="1" stop-color="#B6947E"/>
</linearGradient>
<linearGradient id="paint8_linear_236_939" x1="246.544" y1="3.49389" x2="263.724" y2="213.669" gradientUnits="userSpaceOnUse">
<stop stop-color="#8C421D"/>
<stop offset="0.513687" stop-color="#FBE67B"/>
<stop offset="0.551196" stop-color="#FCFBE7"/>
<stop offset="0.766944" stop-color="#F7D14E"/>
<stop offset="0.811356" stop-color="#EFC64B"/>
<stop offset="1" stop-color="#D4A041"/>
</linearGradient>
<linearGradient id="paint9_linear_236_939" x1="231.68" y1="-44.246" x2="240.387" y2="102.597" gradientUnits="userSpaceOnUse">
<stop stop-color="#B6947E"/>
<stop offset="0.341924" stop-color="#8F6959"/>
<stop offset="0.475" stop-color="#F8DAC8"/>
<stop offset="0.67" stop-color="#AC836E"/>
<stop offset="1" stop-color="#F8DCCB"/>
<stop offset="1" stop-color="#B6947E"/>
</linearGradient>
</defs>
</svg>
